# xmcd CD database file
# Copyright (C) 1995-1998 Ti Kan
#
# Track frame offsets:
#	150
#	19841
#	36740
#	59805
#	81470
#	113775
#	141537
#	172908
#	190944
#	213404
#
# Disc length: 3190 seconds
#
# Revision: 1
# Processed by: cddbd v1.4PL0 Copyright (c) Steve Scherf et al.
# Submitted via: CDex 1.30Release
#
DISCID=9c0c740a
DTITLE=Michael Murphy and the Mob - No Bar, To Far
DYEAR=2001
DGENRE=Blues
TTITLE0=If Things Don't Change
TTITLE1=Supermarket Blues
TTITLE2=Mr. Dollar
TTITLE3=Killin' Floor
TTITLE4=I Like An Older Women
TTITLE5=Junk Food
TTITLE6=Rising Sun Blues
TTITLE7=Bluesman Blues
TTITLE8=Mr. Backscratcher
TTITLE9=The Ice Were Skating On is Thin
EXTD=YEAR: 2001 ID3G:   0
EXTT0=
EXTT1=
EXTT2=
EXTT3=
EXTT4=
EXTT5=
EXTT6=
EXTT7=
EXTT8=
EXTT9=
PLAYORDER=
